<?xml version="1.0" standalone="no"?>
<!DOCTYPE svg PUBLIC "-//W3C//DTD SVG 20010904//EN"
 "http://www.w3.org/TR/2001/REC-SVG-20010904/DTD/svg10.dtd">
<svg version="1.0" xmlns="http://www.w3.org/2000/svg"
 width="512.000000pt" height="512.000000pt" viewBox="0 0 512.000000 512.000000"
 preserveAspectRatio="xMidYMid meet">

<g transform="translate(0.000000,512.000000) scale(0.100000,-0.100000)"
fill="#000000" stroke="none">
<path d="M415 5110 c-183 -38 -330 -170 -391 -350 -18 -53 -19 -134 -19 -2200
0 -2066 1 -2147 19 -2200 52 -154 168 -274 322 -332 l59 -23 2155 0 2155 0 59
23 c154 58 270 178 322 332 18 53 19 134 19 2200 0 2066 -1 2147 -19 2200 -52
154 -168 274 -322 332 l-59 23 -2130 1 c-1172 1 -2148 -2 -2170 -6z m773 -899
c75 -38 156 -194 186 -360 10 -54 -11 -200 -42 -291 -34 -99 -96 -226 -186
-378 -125 -212 -125 -212 -156 -362 -17 -79 -29 -147 -27 -153 1 -5 16 10 32
34 42 65 152 176 219 221 162 111 351 155 556 128 221 -29 360 -113 432 -262
44 -92 52 -145 45 -332 -7 -195 -18 -257 -106 -601 -73 -282 -83 -358 -54
-394 19 -23 23 -24 60 -13 71 21 135 74 364 299 178 175 232 223 253 223 52 0
73 -80 56 -218 -19 -151 -95 -301 -226 -447 -51 -57 -85 -83 -181 -137 -170
-96 -398 -205 -467 -222 -111 -29 -258 12 -323 89 -38 44 -81 142 -100 226
-12 55 -17 122 -16 259 0 215 11 296 79 585 56 240 64 363 28 412 -36 47 -76
65 -154 65 -90 1 -161 -33 -245 -116 -182 -183 -371 -616 -351 -806 17 -155
24 -352 15 -421 -11 -89 -47 -168 -96 -208 -62 -51 -215 -129 -274 -140 -76
-13 -118 -1 -162 49 -45 49 -61 79 -84 160 -16 57 -18 102 -17 370 3 846 144
1480 510 2286 157 347 207 433 269 460 44 19 120 17 163 -5z m2182 -1167 c30
-9 112 -42 181 -74 189 -87 236 -99 434 -110 255 -14 380 -53 421 -132 21 -41
14 -116 -26 -274 -23 -90 -39 -133 -76 -192 -64 -102 -192 -287 -273 -392 -84
-109 -337 -364 -420 -423 -41 -30 -59 -48 -50 -51 41 -15 197 -37 290 -43 276
-16 489 108 796 464 119 139 136 153 177 153 41 0 59 -47 59 -155 -1 -113 -22
-195 -79 -307 -126 -243 -401 -448 -729 -543 -156 -45 -257 -58 -450 -59 -209
-1 -291 13 -453 76 -121 47 -188 90 -214 138 -16 29 -19 48 -14 110 3 41 11
103 17 137 10 57 15 66 82 132 40 39 146 127 237 197 427 328 568 479 570 610
0 62 -70 68 -510 44 -195 -11 -384 -20 -420 -20 -84 0 -143 28 -185 88 -26 38
-30 54 -34 124 -4 102 18 188 70 268 133 206 369 298 599 234z"/>
</g>
</svg>
